<svg xmlns="http://www.w3.org/2000/svg" viewBox="0 0 248 81.2"><defs><style>.cls-1{fill:#fff;fill-rule:evenodd;}.cls-2{isolation:isolate;}.cls-3{fill:#d6a95c;}</style></defs><g id="Calque_2" data-name="Calque 2"><g id="Calque_1-2" data-name="Calque 1"><g id="Groupe_442" data-name="Groupe 442"><path id="Tracé_230" data-name="Tracé 230" class="cls-1" d="M225.93,17.31l.14.94q1,7,1.87,11.8c.47,2.69,1.08,5.35,1.81,8a23.51,23.51,0,0,0,2.08,4.7,14,14,0,0,0,1.55,1.88q1.14-3.88,2.08-7.85,1.06-5.1,2-9.93l.8-4.42c.27-1.52.58-2.95.94-4.3l.2-.8H248l-.4,1.34c-.4,1.34-.76,2.75-1.07,4.23s-.72,3.08-1.08,4.83q-.87,3.95-1.81,8.18c-.66,2.86-1.45,5.63-2.35,8.32a76.64,76.64,0,0,1-2.81,7.58,28.46,28.46,0,0,1-3.83,6.77,18,18,0,0,1-5.16,4.63,13.38,13.38,0,0,1-7,1.81q-.81,0-1.38,0c-.38,0-.75-.06-1.11-.1l-1.07-.13.94-7.72,1.07.13.94.13h.6a6.15,6.15,0,0,0,4.63-1.87,18.81,18.81,0,0,0,3.22-4.3,15.8,15.8,0,0,1-3.89-3.35,23.17,23.17,0,0,1-3.56-6.17,63.79,63.79,0,0,1-2.68-9.4q-1.22-5.56-2.48-13.68l-.2-1.21ZM26.86,7A26.87,26.87,0,0,1,53.72,33.83h0A26.86,26.86,0,1,1,26.86,7ZM34.1,15.5a6,6,0,0,0-5.05,9.27l.17.25-2.53,4.39-4-2.28A.67.67,0,0,0,22.4,27l-.17,0a.72.72,0,0,0-.36.23l-.06.09-1.73,3L24.59,33,17.5,45.52a22.58,22.58,0,0,1-6.77-8.22A4.19,4.19,0,0,0,9,35.56a3.38,3.38,0,0,0-1.51-.21h0l-2.4.35A27.24,27.24,0,0,0,17.26,50.88,26.33,26.33,0,0,0,30,54.41h.76A31.34,31.34,0,0,0,35.64,54l.83-.16h0l0-.1-.85-2.15v0l0-.12h0a3.15,3.15,0,0,0-.87-1.08,4.33,4.33,0,0,0-2.36-.6l-1,0H30.08l-.64,0a21.88,21.88,0,0,1-7-1.53L21.78,48l7.09-12.5,4.58,2.58,1.71-3a.67.67,0,0,0-.15-.86l-.1-.07L31,31.88,33.5,27.5c.2,0,.4,0,.6,0a6,6,0,0,0,5.21-3,6,6,0,0,0-5.21-9Zm95.32,1q6.71,0,10.4,3.49t3.68,10.13V48.5l-.47.33a23.2,23.2,0,0,1-4.29,2.35,32.26,32.26,0,0,1-3.82,1.27,17.72,17.72,0,0,1-3.16.47c-.93,0-1.81.07-2.61.07q-6.78,0-10.57-3t-3.78-8.72a9.46,9.46,0,0,1,4.7-8.72A20.9,20.9,0,0,1,130.3,30a21.73,21.73,0,0,1,5,.54v-.34q0-3.15-1.44-4.59a6.39,6.39,0,0,0-4.53-1.51H129a10.52,10.52,0,0,0-3.29.47,8.34,8.34,0,0,0-2.75,1.74l-.74.67L116,21.46l.94-.87a15.13,15.13,0,0,1,5.76-3.29,22.43,22.43,0,0,1,6.77-.8ZM210.58,0V41.52a10.07,10.07,0,0,0,.16,2,2.4,2.4,0,0,0,.67,1.24,3.12,3.12,0,0,0,1.35.67,15.93,15.93,0,0,0,2.18.33l1.14.14-1.41,7h-.94c-4.11,0-7.08-.86-8.89-2.58s-2.72-4.35-2.72-7.88v-41ZM192.53,17.37V52.25h-8.45V17.37Zm-36.62,0,.2.87q1.54,6.51,3.49,12.71a98.86,98.86,0,0,0,4.76,12.25q1.81-6,3.46-12.25t3.12-12.71l.13-.87h8.52l-.34,1.34q-2.2,7.65-4.93,15.83t-5.93,17l-.27.67h-8l-.27-.67q-4.16-8.79-7.15-17t-5.26-15.83l-.4-1.34Zm-62.38-.8a18.79,18.79,0,0,1,6.81,1.11A11.58,11.58,0,0,1,105,20.87a12.89,12.89,0,0,1,2.65,5.06,25.21,25.21,0,0,1,.83,6.81V52.19H100V34.28a28.48,28.48,0,0,0-.33-4.8,7.78,7.78,0,0,0-1.14-3.06,4.39,4.39,0,0,0-2.18-1.61,11,11,0,0,0-3.46-.47,28.25,28.25,0,0,0-5.43.47V52.25H79.05V18.51l.8-.2a59,59,0,0,1,13.69-1.74Zm37.23,20.66q-3.89,0-5.57,1a3.3,3.3,0,0,0-1.68,3A3.74,3.74,0,0,0,125,44.5c1,.7,2.62,1,4.9,1a15.76,15.76,0,0,0,3.49-.33,8.19,8.19,0,0,0,1.81-.67v-7a20.58,20.58,0,0,0-4.43-.33ZM34.09,19.76A1.81,1.81,0,0,1,35,20a1.75,1.75,0,0,1,.64,2.4,1.74,1.74,0,0,1-1.52.88,1.74,1.74,0,0,1-1.7-1.3,1.76,1.76,0,0,1,1.7-2.21ZM192.6,3.62v8.92H184V3.62Z"/><g id="Premium" class="cls-2"><g class="cls-2"><path class="cls-3" d="M77.87,80.87a.44.44,0,0,1-.13-.33V67.48a.46.46,0,0,1,.13-.35A.44.44,0,0,1,78.2,67h5.08a5.36,5.36,0,0,1,3.56,1.1,4.54,4.54,0,0,1,0,6.35,5.35,5.35,0,0,1-3.57,1.09H79.74v5a.45.45,0,0,1-.14.33.47.47,0,0,1-.34.13H78.2A.44.44,0,0,1,77.87,80.87Zm5.31-7a3.26,3.26,0,0,0,2.21-.66,2.42,2.42,0,0,0,.75-1.92,2.49,2.49,0,0,0-.74-1.93,3.19,3.19,0,0,0-2.22-.67H79.72v5.18Z"/><path class="cls-3" d="M90.45,80.87a.44.44,0,0,1-.13-.33V71.08a.47.47,0,0,1,.13-.34.45.45,0,0,1,.33-.14h.92a.48.48,0,0,1,.48.48V72A3,3,0,0,1,95,70.6h.78a.44.44,0,0,1,.46.46v.82a.41.41,0,0,1-.13.32.48.48,0,0,1-.33.12h-1.2a2.27,2.27,0,0,0-1.7.63,2.35,2.35,0,0,0-.62,1.71v5.88a.45.45,0,0,1-.14.33.47.47,0,0,1-.34.13h-1A.44.44,0,0,1,90.45,80.87Z"/><path class="cls-3" d="M98.59,79.93a5.21,5.21,0,0,1-1.35-3.47l0-.68,0-.66a5.25,5.25,0,0,1,1.37-3.44,4.84,4.84,0,0,1,6.69.13,5.64,5.64,0,0,1,1.22,3.81V76a.44.44,0,0,1-.46.46H99.14v.18a3.68,3.68,0,0,0,.79,2.21,2.35,2.35,0,0,0,1.93.91,2.77,2.77,0,0,0,1.51-.37,3.05,3.05,0,0,0,.87-.77,1.1,1.1,0,0,1,.27-.29.8.8,0,0,1,.33-.05h1a.44.44,0,0,1,.3.1.35.35,0,0,1,.12.28,1.74,1.74,0,0,1-.55,1.06,4.61,4.61,0,0,1-1.54,1.07,5.44,5.44,0,0,1-2.27.45A4.36,4.36,0,0,1,98.59,79.93Zm6-4.89V75a3.32,3.32,0,0,0-.75-2.25,2.52,2.52,0,0,0-2-.87,2.47,2.47,0,0,0-2,.87A3.36,3.36,0,0,0,99.14,75V75Z"/><path class="cls-3" d="M109.05,80.87a.44.44,0,0,1-.13-.33V71.06a.44.44,0,0,1,.46-.46h.9a.44.44,0,0,1,.46.46v.7a3.43,3.43,0,0,1,2.9-1.36,3.22,3.22,0,0,1,3.14,1.84,3.5,3.5,0,0,1,1.36-1.34,4,4,0,0,1,2-.5,3.48,3.48,0,0,1,2.68,1.12,4.62,4.62,0,0,1,1,3.24v5.78a.44.44,0,0,1-.46.46h-.94a.44.44,0,0,1-.46-.46v-5.6a3.19,3.19,0,0,0-.65-2.24,2.26,2.26,0,0,0-1.71-.68,2.19,2.19,0,0,0-1.62.69,3.1,3.1,0,0,0-.68,2.23v5.6a.44.44,0,0,1-.46.46h-.94a.44.44,0,0,1-.46-.46v-5.6a3.09,3.09,0,0,0-.67-2.24A2.29,2.29,0,0,0,113.1,72a2.19,2.19,0,0,0-1.62.69,3.08,3.08,0,0,0-.68,2.21v5.62a.44.44,0,0,1-.46.46h-1A.44.44,0,0,1,109.05,80.87Z"/><path class="cls-3" d="M126.67,68.53a.44.44,0,0,1-.13-.33V67.12a.47.47,0,0,1,.13-.34.45.45,0,0,1,.33-.14h1.26a.48.48,0,0,1,.48.48V68.2a.45.45,0,0,1-.14.33.47.47,0,0,1-.34.13H127A.44.44,0,0,1,126.67,68.53Zm.16,12.34a.44.44,0,0,1-.13-.33V71.06a.44.44,0,0,1,.46-.46h1a.44.44,0,0,1,.46.46v9.48a.44.44,0,0,1-.46.46h-1A.44.44,0,0,1,126.83,80.87Z"/><path class="cls-3" d="M132.48,80a4.91,4.91,0,0,1-1-3.27V71.06a.44.44,0,0,1,.46-.46h1a.44.44,0,0,1,.46.46V76.6c0,2,.87,3,2.6,3a2.59,2.59,0,0,0,2-.79,3.1,3.1,0,0,0,.74-2.19V71.06a.44.44,0,0,1,.46-.46h1a.41.41,0,0,1,.32.13.48.48,0,0,1,.12.33v9.48a.48.48,0,0,1-.12.33.41.41,0,0,1-.32.13h-.94a.44.44,0,0,1-.46-.46v-.88a3.65,3.65,0,0,1-1.36,1.15,4.48,4.48,0,0,1-2,.39A3.63,3.63,0,0,1,132.48,80Z"/><path class="cls-3" d="M143.71,80.87a.44.44,0,0,1-.13-.33V71.06a.44.44,0,0,1,.46-.46h.9a.44.44,0,0,1,.46.46v.7a3.43,3.43,0,0,1,2.9-1.36,3.22,3.22,0,0,1,3.14,1.84,3.5,3.5,0,0,1,1.36-1.34,4,4,0,0,1,2-.5,3.48,3.48,0,0,1,2.68,1.12,4.62,4.62,0,0,1,1,3.24v5.78A.44.44,0,0,1,158,81h-.94a.44.44,0,0,1-.46-.46v-5.6A3.19,3.19,0,0,0,156,72.7a2.26,2.26,0,0,0-1.71-.68,2.19,2.19,0,0,0-1.62.69,3.1,3.1,0,0,0-.68,2.23v5.6a.44.44,0,0,1-.46.46h-.94a.44.44,0,0,1-.46-.46v-5.6a3.09,3.09,0,0,0-.67-2.24,2.29,2.29,0,0,0-1.69-.68,2.19,2.19,0,0,0-1.62.69,3.08,3.08,0,0,0-.68,2.21v5.62A.44.44,0,0,1,145,81h-1A.44.44,0,0,1,143.71,80.87Z"/></g></g></g></g></g></svg>