<svg width="340" height="89" viewBox="0 0 340 89" fill="none" xmlns="http://www.w3.org/2000/svg">
<g clip-path="url(#clip0_1_1510)">
<path d="M309.748 23.7067L309.93 24.9942C310.85 31.361 311.708 36.7495 312.506 41.1597C313.148 44.8413 313.974 48.4884 314.981 52.0873C315.693 54.3292 316.649 56.4859 317.834 58.5184C318.459 59.4377 319.167 60.2982 319.949 61.0891C320.991 57.5387 321.942 53.9568 322.8 50.3435C323.781 45.6906 324.7 41.1597 325.558 36.751L326.66 30.6838C327.031 28.6016 327.461 26.6421 327.95 24.8055L328.226 23.7022H339.998L339.447 25.5403C338.893 27.3769 338.403 29.3056 337.975 31.3265C337.485 33.3474 336.994 35.5518 336.504 37.9397C335.706 41.5515 334.881 45.2869 334.029 49.1458C333.111 53.0647 332.038 56.8608 330.809 60.534C329.701 64.0566 328.412 67.5202 326.948 70.911C325.636 74.2288 323.872 77.3501 321.706 80.187C319.776 82.7348 317.372 84.8865 314.626 86.5237C311.696 88.2188 308.354 89.074 304.969 88.9955C304.234 88.9955 303.606 88.9805 303.084 88.9506C302.562 88.9206 302.056 88.8749 301.567 88.8135L300.098 88.6292L301.385 78.068L302.856 78.2522C303.345 78.3137 303.774 78.3751 304.143 78.4365H304.969C306.148 78.4751 307.322 78.2662 308.415 77.8234C309.507 77.3806 310.495 76.7137 311.314 75.8658C313.063 74.1303 314.55 72.1502 315.728 69.9875C313.71 68.7586 311.908 67.2069 310.394 65.3945C308.342 62.8457 306.698 59.9948 305.52 56.9432C303.969 52.7567 302.739 48.4584 301.842 44.0854C300.739 39.004 299.605 32.7586 298.438 25.3493L298.163 23.6954L309.748 23.7067ZM36.8218 9.55008C46.5872 9.55008 55.9526 13.4243 62.858 20.3206C69.7634 27.2169 73.643 36.5704 73.6436 46.3235C73.643 56.0766 69.7634 65.4301 62.858 72.3264C55.9526 79.2227 46.5872 83.0969 36.8218 83.0969C27.0565 83.0969 17.691 79.2227 10.7857 72.3264C3.88029 65.4301 0.000596686 56.0766 0 46.3235C0.000596686 36.5704 3.88029 27.2169 10.7857 20.3206C17.691 13.4243 27.0565 9.55008 36.8218 9.55008ZM46.7461 21.2349C45.2989 21.2358 43.8772 21.6159 42.6229 22.337C41.3687 23.0582 40.3258 24.0953 39.5982 25.3448C38.8448 26.6573 38.4673 28.1514 38.507 29.6637C38.5467 31.1761 39.002 32.6484 39.8232 33.9196L40.0482 34.2657L36.5856 40.2676L31.1858 37.1487C31.0436 37.0663 30.8822 37.0229 30.7179 37.0229C30.6358 37.0229 30.5542 37.0334 30.4749 37.0543C30.2845 37.1058 30.1153 37.2159 29.9911 37.3689L29.9079 37.4902L27.5365 41.6361L33.7192 45.209L24.0019 62.3272C20.0534 59.3711 16.8717 55.513 14.7233 51.0761C14.1941 50.0733 13.3853 49.2452 12.3947 48.6919C11.7296 48.4421 11.0167 48.3453 10.309 48.4088H10.2865L6.99043 48.8919C9.80054 57.6306 15.7379 65.0279 23.6667 69.6684C28.9625 72.7242 34.9499 74.3837 41.0651 74.4906H41.9651H42.1136C44.3756 74.4854 46.6333 74.2922 48.8633 73.9131L50.004 73.7041V73.6907L49.9477 73.5469L48.7845 70.6122L48.7665 70.5762L48.7013 70.4099H48.6788C48.3955 69.8377 47.99 69.3345 47.4908 68.9358C46.5161 68.3557 45.3939 68.07 44.26 68.1134C43.7898 68.1426 43.3218 68.1539 42.856 68.1629C42.6198 68.1629 42.3813 68.1786 42.1473 68.1786H41.2609L40.3812 68.1449C37.0628 67.9871 33.7936 67.281 30.7066 66.0551L29.8764 65.709L39.5937 48.5931L45.8642 52.1277L48.2176 48.0425C48.3264 47.8533 48.3656 47.6319 48.3282 47.4168C48.2908 47.2018 48.1792 47.0066 48.0128 46.8651L47.8756 46.7684L42.4758 43.6495L45.9182 37.6386C46.1904 37.6655 46.4649 37.679 46.7371 37.679C48.1834 37.678 49.6042 37.2979 50.8573 36.5767C52.1105 35.8554 53.1522 34.8184 53.8783 33.5691C54.4226 32.6336 54.7756 31.5996 54.9169 30.5269C55.0583 29.4543 54.9851 28.3642 54.7018 27.32C54.424 26.2742 53.9414 25.2939 53.2818 24.4357C52.6221 23.5775 51.7986 22.8584 50.8589 22.3202C49.6068 21.605 48.1886 21.2308 46.7461 21.2349ZM177.429 22.6056C182.624 22.2733 187.743 23.9839 191.691 27.3717C193.456 29.2014 194.817 31.3805 195.687 33.7682C196.557 36.1559 196.915 38.6992 196.74 41.2339V66.4011L196.097 66.8506C194.254 68.1266 192.281 69.2038 190.211 70.0639C188.502 70.7565 186.751 71.3397 184.969 71.8099C183.551 72.1596 182.104 72.3747 180.647 72.4525C179.358 72.5124 178.163 72.5432 177.06 72.5447C171.915 72.8515 166.815 71.4274 162.575 68.4999C160.819 67.0675 159.43 65.2363 158.526 63.1591C157.622 61.0819 157.229 58.819 157.378 56.5589C157.241 54.1692 157.771 51.7884 158.907 49.6809C160.043 47.5734 161.742 45.8217 163.815 44.6202C168.336 42.1128 173.453 40.8751 178.622 41.0384C180.911 41.0204 183.195 41.2669 185.428 41.7732V41.3238C185.528 40.1967 185.405 39.0608 185.066 37.9812C184.727 36.9016 184.177 35.8994 183.45 35.0319C181.725 33.5701 179.501 32.8302 177.242 32.9669H176.792C175.268 32.9397 173.749 33.1566 172.293 33.6095C170.887 34.1496 169.604 34.9639 168.517 36.0049L167.505 36.924L158.955 29.3918L160.242 28.1963C162.512 26.1326 165.213 24.5977 168.148 23.7022C171.168 22.8646 174.297 22.491 177.429 22.5944V22.6056ZM288.691 0V56.8511C288.669 57.7904 288.744 58.7294 288.916 59.6532C289.038 60.3011 289.358 60.8949 289.834 61.352C290.357 61.813 290.991 62.1298 291.674 62.271C292.66 62.4859 293.658 62.6361 294.662 62.7204L296.226 62.9047L294.296 72.457H293.006C287.367 72.457 283.305 71.2788 280.821 68.9224C279.49 67.4778 278.472 65.774 277.831 63.9179C277.19 62.0618 276.94 60.0935 277.097 58.1364V2.02012L288.691 0ZM263.956 23.7876V71.547H252.369V23.7876H263.956ZM213.749 23.7876L214.024 24.9808C215.434 30.9205 217.028 36.7217 218.807 42.3844C220.608 48.1103 222.787 53.7104 225.332 59.1476C226.982 53.6362 228.557 48.0485 230.057 42.3844C231.556 36.7202 232.981 30.919 234.331 24.9808L234.516 23.7876H246.195L245.745 25.6257C243.722 32.6051 241.472 39.8302 238.995 47.301C236.519 54.7718 233.806 62.5482 230.855 70.6301L230.488 71.5492H219.541L219.174 70.6301C215.373 62.6081 212.108 54.8317 209.38 47.301C206.652 39.7703 204.246 32.5452 202.162 25.6257L201.609 23.7876H213.749ZM128.244 22.6865C131.423 22.6125 134.587 23.1259 137.579 24.201C140.036 25.1085 142.231 26.6065 143.971 28.5626C145.682 30.5755 146.92 32.9459 147.593 35.4993C148.4 38.5425 148.786 41.6816 148.741 44.8292V71.4638H137.154V46.9325C137.189 44.7351 137.038 42.5387 136.704 40.3665C136.491 38.8751 135.954 37.4483 135.129 36.1869C134.397 35.1495 133.349 34.3763 132.141 33.9826C130.607 33.5138 129.008 33.2961 127.405 33.3376C124.907 33.3105 122.413 33.5265 119.958 33.9826V71.547H108.371V25.3493L109.476 25.0729C115.617 23.5489 121.916 22.7479 128.244 22.6865ZM179.267 50.975C176.647 50.7852 174.021 51.259 171.633 52.3524C170.905 52.7614 170.304 53.3642 169.898 54.0938C169.493 54.8233 169.297 55.651 169.334 56.4848C169.268 57.3374 169.42 58.1928 169.774 58.9714C170.128 59.7501 170.673 60.4267 171.359 60.9385C173.411 62.0538 175.744 62.5466 178.073 62.3564C179.679 62.3862 181.283 62.2316 182.854 61.8958C183.714 61.6946 184.545 61.3866 185.329 60.9789V51.4266C183.33 51.063 181.298 50.9116 179.267 50.975ZM46.7484 27.0526C47.1703 27.0534 47.5846 27.165 47.9498 27.3761C48.2241 27.5351 48.4642 27.7466 48.6566 27.9984C48.8489 28.2502 48.9897 28.5374 49.0708 28.8436C49.1519 29.1498 49.1717 29.4689 49.1291 29.7828C49.0866 30.0966 48.9825 30.399 48.8228 30.6726C48.6103 31.0384 48.3054 31.3421 47.9387 31.5535C47.5719 31.7648 47.1561 31.8764 46.7326 31.877C46.3106 31.8767 45.8961 31.7651 45.5312 31.5535C45.2559 31.3963 45.0147 31.186 44.8216 30.9349C44.6285 30.6837 44.4873 30.3967 44.4062 30.0906C44.3235 29.7853 44.3022 29.4667 44.3435 29.1531C44.3848 28.8395 44.488 28.5373 44.647 28.2637C44.8588 27.8959 45.164 27.5903 45.5317 27.3776C45.8994 27.165 46.3167 27.0529 46.7416 27.0526H46.7484ZM264.055 4.9593V17.1744H252.283V4.9593H264.055Z" fill="#113A73"/>
</g>
<defs>
<clipPath id="clip0_1_1510">
<rect width="340" height="89" fill="white"/>
</clipPath>
</defs>
</svg>
